<svg xmlns="http://www.w3.org/2000/svg" viewBox="0 0 657.81 532.5"><defs><style>.cls-1{font-size:100px;}.cls-1,.cls-3,.cls-6{fill:#fff;}.cls-1,.cls-3{font-family:GillSansMT, Gill Sans MT;}.cls-2{letter-spacing:-0.1em;}.cls-3{font-size:50px;}.cls-4{letter-spacing:-0.03em;}.cls-5{letter-spacing:-0.06em;}.cls-7{fill:#009fe3;}</style></defs><g id="Layer_2" data-name="Layer 2"><g id="integral_sign" data-name="integral sign"><text class="cls-1" transform="translate(5.96 465.71)">HAR<tspan class="cls-2" x="200" y="0">R</tspan><tspan x="250.39" y="0">Y HONG</tspan></text><text class="cls-3" transform="translate(0 518.39)">INST<tspan class="cls-4" x="104.64" y="0">R</tspan><tspan x="133.35" y="0">UC</tspan><tspan class="cls-5" x="204.15" y="0">T</tspan><tspan x="231.1" y="0">OR \M</tspan><tspan class="cls-2" x="369.43" y="0">A</tspan><tspan x="397.78" y="0">THEM</tspan><tspan class="cls-2" x="528.47" y="0">A</tspan><tspan x="556.81" y="0">TICS</tspan></text><path class="cls-6" d="M438,6.48a35.93,35.93,0,0,1-7.73,36A57,57,0,0,1,403.91,150h-41v36h41A93,93,0,0,0,438,6.48Z"/><path class="cls-6" d="M227.53,293.51A57,57,0,0,1,253.91,186h41V150h-41A93,93,0,0,0,219.8,329.52a36,36,0,0,1,7.73-36Z"/><path class="cls-7" d="M403.91,0a93.11,93.11,0,0,0-93,93V243a57.06,57.06,0,0,1-57,57,18,18,0,1,0,0,36,93.11,93.11,0,0,0,93-93V93a57.06,57.06,0,0,1,57-57,18,18,0,0,0,0-36Z"/></g></g></svg>